<?xml version="1.0" encoding="UTF-8"?>
<svg version="1.1" viewBox="0 0 32 32" xml:space="preserve" xmlns="http://www.w3.org/2000/svg" xmlns:cc="http://creativecommons.org/ns#" xmlns:dc="http://purl.org/dc/elements/1.1/" xmlns:rdf="http://www.w3.org/1999/02/22-rdf-syntax-ns#"><metadata><rdf:RDF><cc:Work rdf:about=""><dc:format>image/svg+xml</dc:format><dc:type rdf:resource="http://purl.org/dc/dcmitype/StillImage"/><dc:title/></cc:Work></rdf:RDF></metadata>
<g transform="matrix(1.0254 0 0 1.0254 0 .15136)">
		<path d="m23.128 31.059h-15.197c-4.373 0-7.931-3.559-7.931-7.932v-15.197c0-4.373 3.558-7.93 7.931-7.93h15.197c4.373 0 7.931 3.557 7.931 7.93v15.197c0 4.373-3.558 7.932-7.931 7.932zm-15.197-29.285c-3.395 0-6.156 2.761-6.156 6.155v15.197c0 3.395 2.762 6.156 6.156 6.156h15.197c3.395 0 6.155-2.762 6.155-6.156v-15.196c0-3.395-2.761-6.155-6.155-6.155h-15.197z" style=""/>
		<path d="m30.171 11.654h-10.939c-0.49 0-0.888-0.398-0.888-0.888s0.397-0.888 0.888-0.888h10.938c0.49 0 0.888 0.397 0.888 0.888 1e-3 0.49-0.397 0.888-0.887 0.888z" style=""/>
		<path d="m11.597 11.654h-10.71c-0.49 0-0.887-0.398-0.887-0.887 0-0.49 0.397-0.888 0.887-0.888h10.71c0.49 0 0.888 0.397 0.888 0.888-1e-3 0.489-0.398 0.887-0.888 0.887z" style=""/>
		<path d="m15.529 22.45c-3.816 0-6.922-3.104-6.922-6.921s3.105-6.922 6.922-6.922c3.816 0 6.921 3.104 6.921 6.922 0 3.817-3.104 6.921-6.921 6.921zm0-12.068c-2.838 0-5.148 2.31-5.148 5.148s2.31 5.146 5.148 5.146 5.146-2.308 5.146-5.146-2.308-5.148-5.146-5.148z" style=""/>
		<path d="m25.557 9.361h-3.993c-0.49 0-0.888-0.397-0.888-0.887v-3.994c0-0.49 0.398-0.887 0.888-0.887h3.993c0.49 0 0.887 0.397 0.887 0.887v3.994c-1e-3 0.491-0.397 0.887-0.887 0.887zm-3.107-1.775h2.219v-2.218h-2.219z" style=""/>
			<path d="m19.232 10.767" stroke="#fff" stroke-linecap="round" stroke-linejoin="round" stroke-miterlimit="10" stroke-width="1.7748"/>
</g>
</svg>
