<?xml version="1.0" encoding="UTF-8"?>
<svg version="1.1" viewBox="0 0 32 32" xml:space="preserve" xmlns="http://www.w3.org/2000/svg" xmlns:cc="http://creativecommons.org/ns#" xmlns:dc="http://purl.org/dc/elements/1.1/" xmlns:rdf="http://www.w3.org/1999/02/22-rdf-syntax-ns#"><metadata><rdf:RDF><cc:Work rdf:about=""><dc:format>image/svg+xml</dc:format><dc:type rdf:resource="http://purl.org/dc/dcmitype/StillImage"/><dc:title/></cc:Work></rdf:RDF></metadata>
<g transform="matrix(.061597 0 0 .061597 .0009384 .46027)">
			<path d="m511.87 195.72c-0.053-0.588-0.17-1.169-0.35-1.732-0.117-0.503-0.28-0.994-0.486-1.468-0.239-0.463-0.525-0.901-0.853-1.306-0.329-0.481-0.71-0.924-1.135-1.323-0.137-0.119-0.196-0.282-0.341-0.401l-82.065-63.735v-66.056c0-14.138-11.462-25.6-25.6-25.6h-92.476l-37.027-28.749c-9.147-7.134-21.974-7.134-31.121 0l-37.035 28.749h-92.476c-14.138 0-25.6 11.461-25.6 25.6v66.057l-82.039 63.735c-0.145 0.12-0.205 0.282-0.341 0.401-0.425 0.398-0.806 0.842-1.135 1.323-0.328 0.405-0.614 0.842-0.853 1.306-0.207 0.473-0.369 0.965-0.486 1.468-0.178 0.555-0.295 1.127-0.35 1.707 0 0.179-0.102 0.333-0.102 0.512v290.16c0.012 5.428 1.768 10.708 5.009 15.061 0.051 0.077 0.06 0.171 0.119 0.239 0.06 0.068 0.188 0.145 0.273 0.239 4.794 6.308 12.25 10.027 20.173 10.061h460.8c7.954-0.024 15.441-3.761 20.241-10.103 0.068-0.085 0.171-0.111 0.23-0.196 0.06-0.085 0.068-0.162 0.12-0.239 3.241-4.354 4.997-9.634 5.009-15.061v-290.13c-1e-3 -0.179-0.094-0.333-0.103-0.512zm-261.02-176.9c2.98-2.368 7.2-2.368 10.18 0l19.686 15.283h-49.493zm-223.13 476.08 223.13-173.32c2.982-2.364 7.199-2.364 10.18 0l223.19 173.32zm467.18-13.304-223.37-173.48c-9.149-7.128-21.972-7.128-31.121 0l-223.38 173.48v-272.37l139.84 108.59c3.726 2.889 9.088 2.211 11.977-1.515s2.211-9.088-1.515-11.977l-142.06-110.31 60.032-46.652v65.937c0 4.713 3.821 8.533 8.533 8.533 4.713 0 8.533-3.821 8.533-8.533v-153.6c0-4.713 3.82-8.533 8.533-8.533h290.13c4.713 0 8.533 3.82 8.533 8.533v153.6c0 4.713 3.82 8.533 8.533 8.533s8.533-3.821 8.533-8.533v-65.937l60.032 46.652-142.31 110.51c-2.448 1.855-3.711 4.883-3.305 7.928s2.417 5.637 5.266 6.786 6.096 0.679 8.501-1.232l140.08-108.77v272.37z"/>
			<path d="m358.37 204.77v-34.133c0-56.554-45.846-102.4-102.4-102.4s-102.4 45.846-102.4 102.4 45.846 102.4 102.4 102.4c4.713 0 8.533-3.82 8.533-8.533s-3.82-8.533-8.533-8.533c-47.128 0-85.333-38.205-85.333-85.333s38.205-85.333 85.333-85.333 85.333 38.205 85.333 85.333v34.133c0 9.426-7.641 17.067-17.067 17.067s-17.067-7.641-17.067-17.067v-34.133c0-4.713-3.82-8.533-8.533-8.533s-8.533 3.82-8.533 8.533c0 18.851-15.282 34.133-34.133 34.133s-34.133-15.282-34.133-34.133 15.282-34.133 34.133-34.133c4.713 0 8.533-3.82 8.533-8.533s-3.82-8.533-8.533-8.533c-22.915-0.051-43.074 15.13-49.354 37.168s2.847 45.565 22.347 57.601 44.622 9.65 61.507-5.843c1.858 18.046 17.543 31.464 35.659 30.505 18.117-0.96 32.298-15.958 32.241-34.1z"/>
</g>
</svg>
