<svg version="1.1" id="social_icons" xmlns="http://www.w3.org/2000/svg" xmlns:xlink="http://www.w3.org/1999/xlink" x="0px" y="0px"
xml:space="preserve"
>

<defs>

    <g id="instagram_icon">
        <g>
            <path  d="M23.128,31.059H7.931C3.558,31.059,0,27.5,0,23.127V7.93C0,3.557,3.558,0,7.931,0h15.197
                c4.373,0,7.931,3.557,7.931,7.93v15.197C31.059,27.5,27.501,31.059,23.128,31.059z M7.931,1.774c-3.395,0-6.156,2.761-6.156,6.155
                v15.197c0,3.395,2.762,6.156,6.156,6.156h15.197c3.395,0,6.155-2.762,6.155-6.156V7.93c0-3.395-2.761-6.155-6.155-6.155H7.931z"/>
        </g>
        <g>
            <path  d="M30.171,11.654H19.232c-0.49,0-0.888-0.398-0.888-0.888c0-0.49,0.397-0.888,0.888-0.888h10.938
                c0.49,0,0.888,0.397,0.888,0.888C31.059,11.256,30.661,11.654,30.171,11.654z"/>
        </g>
        <g>
            <path  d="M11.597,11.654H0.887C0.397,11.654,0,11.256,0,10.767c0-0.49,0.397-0.888,0.887-0.888h10.71
                c0.49,0,0.888,0.397,0.888,0.888C12.484,11.256,12.087,11.654,11.597,11.654z"/>
        </g>
        <g>
            <path  d="M15.529,22.45c-3.816,0-6.922-3.104-6.922-6.921c0-3.817,3.105-6.922,6.922-6.922
                c3.816,0,6.921,3.104,6.921,6.922C22.45,19.346,19.346,22.45,15.529,22.45z M15.529,10.382c-2.838,0-5.148,2.31-5.148,5.148
                s2.31,5.146,5.148,5.146c2.838,0,5.146-2.308,5.146-5.146S18.367,10.382,15.529,10.382z"/>
        </g>
        <g>
            <path  d="M25.557,9.361h-3.993c-0.49,0-0.888-0.397-0.888-0.887V4.48c0-0.49,0.398-0.887,0.888-0.887h3.993
                c0.49,0,0.887,0.397,0.887,0.887v3.994C26.443,8.965,26.047,9.361,25.557,9.361z M22.45,7.586h2.219V5.368H22.45V7.586z"/>
        </g>
        <g>
            
                <path style="stroke:#FFFFFF;stroke-width:1.7748;stroke-linecap:round;stroke-linejoin:round;stroke-miterlimit:10;" d="
                M19.232,10.767"/>
        </g>
    </g>
        
</defs>
<defs>
    <g id="mail_icon">
        <g>
            <g>
                <g>
                    <path d="M511.872,195.725c-0.053-0.588-0.17-1.169-0.35-1.732c-0.117-0.503-0.28-0.994-0.486-1.468
                        c-0.239-0.463-0.525-0.901-0.853-1.306c-0.329-0.481-0.71-0.924-1.135-1.323c-0.137-0.119-0.196-0.282-0.341-0.401
                        l-82.065-63.735V59.704c0-14.138-11.462-25.6-25.6-25.6h-92.476L271.539,5.355c-9.147-7.134-21.974-7.134-31.121,0
                        l-37.035,28.749h-92.476c-14.138,0-25.6,11.461-25.6,25.6v66.057L3.268,189.496c-0.145,0.12-0.205,0.282-0.341,0.401
                        c-0.425,0.398-0.806,0.842-1.135,1.323c-0.328,0.405-0.614,0.842-0.853,1.306c-0.207,0.473-0.369,0.965-0.486,1.468
                        c-0.178,0.555-0.295,1.127-0.35,1.707c0,0.179-0.102,0.333-0.102,0.512V486.37c0.012,5.428,1.768,10.708,5.009,15.061
                        c0.051,0.077,0.06,0.171,0.119,0.239c0.06,0.068,0.188,0.145,0.273,0.239c4.794,6.308,12.25,10.027,20.173,10.061h460.8
                        c7.954-0.024,15.441-3.761,20.241-10.103c0.068-0.085,0.171-0.111,0.23-0.196c0.06-0.085,0.068-0.162,0.12-0.239
                        c3.241-4.354,4.997-9.634,5.009-15.061V196.237C511.974,196.058,511.881,195.904,511.872,195.725z M250.854,18.82
                        c2.98-2.368,7.2-2.368,10.18,0l19.686,15.283h-49.493L250.854,18.82z M27.725,494.904l223.13-173.321
                        c2.982-2.364,7.199-2.364,10.18,0l223.189,173.321H27.725z M494.908,481.6L271.539,308.117c-9.149-7.128-21.972-7.128-31.121,0
                        L17.041,481.6V209.233L156.877,317.82c3.726,2.889,9.088,2.211,11.977-1.515c2.889-3.726,2.211-9.088-1.515-11.977
                        L25.276,194.018l60.032-46.652v65.937c0,4.713,3.821,8.533,8.533,8.533c4.713,0,8.533-3.821,8.533-8.533v-153.6
                        c0-4.713,3.82-8.533,8.533-8.533h290.133c4.713,0,8.533,3.82,8.533,8.533v153.6c0,4.713,3.82,8.533,8.533,8.533
                        s8.533-3.821,8.533-8.533v-65.937l60.032,46.652l-142.31,110.507c-2.448,1.855-3.711,4.883-3.305,7.928s2.417,5.637,5.266,6.786
                        c2.849,1.149,6.096,0.679,8.501-1.232l140.083-108.774V481.6z"/>
                    <path d="M358.374,204.77v-34.133c0-56.554-45.846-102.4-102.4-102.4c-56.554,0-102.4,45.846-102.4,102.4
                        s45.846,102.4,102.4,102.4c4.713,0,8.533-3.82,8.533-8.533s-3.82-8.533-8.533-8.533c-47.128,0-85.333-38.205-85.333-85.333
                        s38.205-85.333,85.333-85.333s85.333,38.205,85.333,85.333v34.133c0,9.426-7.641,17.067-17.067,17.067
                        s-17.067-7.641-17.067-17.067v-34.133c0-4.713-3.82-8.533-8.533-8.533s-8.533,3.82-8.533,8.533
                        c0,18.851-15.282,34.133-34.133,34.133c-18.851,0-34.133-15.282-34.133-34.133s15.282-34.133,34.133-34.133
                        c4.713,0,8.533-3.82,8.533-8.533s-3.82-8.533-8.533-8.533c-22.915-0.051-43.074,15.13-49.354,37.168
                        c-6.28,22.038,2.847,45.565,22.347,57.601c19.5,12.036,44.622,9.65,61.507-5.843c1.858,18.046,17.543,31.464,35.659,30.505
                        C344.25,237.91,358.431,222.912,358.374,204.77z"/>
                </g>
            </g>
        </g>
    </g>
</defs>

<defs>
    <g id="tripadvisor_icon">
        <g>
            <path d="M60.401,20.996c2.751,0.389,5.445,1.08,8.105,1.898c4.647,1.431,9.032,3.419,13.156,5.998
                c0.287,0.178,0.67,0.291,1.008,0.291c4.846,0.02,9.688,0.013,14.526,0.017c0.39,0,0.778,0.041,1.167,0.063
                c0,0.095,0.014,0.135-0.002,0.155c-0.226,0.35-0.455,0.691-0.682,1.038c-1.645,2.521-3.049,5.156-3.876,8.07
                c-0.092,0.313-0.109,0.575,0.103,0.882c4.313,6.192,5.688,12.99,3.886,20.318c-1.58,6.427-5.264,11.438-10.86,14.984
                c-4.001,2.537-8.421,3.745-13.145,3.771c-1.982,0.012-3.958-0.255-5.896-0.757c-4.724-1.227-8.771-3.579-12.106-7.146
                c-0.438-0.468-0.854-0.957-1.323-1.484c-1.764,2.629-3.5,5.215-5.276,7.867c-1.771-2.646-3.483-5.207-5.191-7.758
                c-0.118,0.063-0.152,0.069-0.175,0.091c-0.039,0.032-0.072,0.071-0.104,0.108c-4.033,4.765-9.109,7.686-15.295,8.663
                c-3.438,0.545-6.847,0.349-10.188-0.572c-4.735-1.301-8.759-3.799-12.01-7.483c-3.179-3.604-5.153-7.788-5.896-12.547
                c-0.849-4.438,0.187-8.721,0.443-9.76c0.748-3.02,2.052-5.793,3.842-8.343c0.126-0.181,0.17-0.501,0.11-0.717
                c-0.73-2.678-1.988-5.112-3.461-7.444c-0.374-0.593-0.822-1.142-1.236-1.711c0-0.064,0-0.132,0-0.198
                c0.083,0.012,0.165,0.026,0.246,0.026c4.956,0.002,9.911,0.004,14.867-0.006c0.216,0,0.456-0.089,0.64-0.207
                c3.481-2.234,7.192-4.004,11.09-5.382c2.813-0.992,5.681-1.768,8.608-2.333c2.834-0.549,5.683-0.936,8.562-1.124
                C51.059,19.73,56.669,20.473,60.401,20.996z M54.188,53.727c0,10.883,8.83,19.772,19.674,19.73
                c10.885-0.039,19.675-8.68,19.667-19.683c-0.008-11.339-9.206-19.863-20.089-19.644C62.696,34.357,54.286,43.017,54.188,53.727z
                M24.677,34.059C14.091,33.967,4.861,42.802,5.046,54.056c0.172,10.493,8.822,19.392,19.853,19.297
                C35.682,73.26,44.35,64.455,44.37,53.79C44.386,42.835,35.612,34.059,24.677,34.059z M25.653,28.925
                c5.979,0.365,11.233,2.449,15.671,6.485c4.429,4.028,7.024,9.053,7.967,14.962c0.972-5.839,3.497-10.815,7.843-14.805
                c4.354-3.992,9.536-6.087,15.418-6.53c-6.979-3.103-14.34-4.421-21.916-4.565C42.026,24.301,33.651,25.57,25.653,28.925z"/>
            <path d="M73.822,41.311c6.735-0.013,12.19,5.415,12.19,12.143c0,6.754-5.362,11.977-11.688,12.216
                c-7.065,0.271-12.718-5.356-12.716-12.186C61.614,46.578,67.307,41.197,73.822,41.311z M81.766,53.484
                c-0.003-4.392-3.554-7.958-7.912-7.958c-4.41,0-8,3.549-8.02,7.926c-0.016,4.358,3.594,7.984,7.961,7.996
                C78.173,61.465,81.768,57.866,81.766,53.484z"/>
            <path d="M24.417,41.311c6.731-0.007,12.194,5.429,12.177,12.154c-0.019,6.811-5.386,11.916-11.601,12.199
                C17.9,65.99,12.177,60.336,12.19,53.471C12.204,46.516,17.936,41.195,24.417,41.311z M32.352,53.457
                c-0.015-4.417-3.585-7.938-8.044-7.93c-4.303,0.008-7.905,3.638-7.896,7.955c0.011,4.367,3.611,7.958,7.992,7.97
                C28.759,61.462,32.363,57.836,32.352,53.457z"/>
            <path d="M73.828,49.443c2.232-0.002,4.063,1.829,4.041,4.048c-0.021,2.224-1.821,4.026-4.016,4.027
                c-2.262,0-4.077-1.786-4.072-3.999C69.785,51.223,71.55,49.445,73.828,49.443z"/>
            <path d="M24.396,49.407c2.266-0.002,4.087,1.808,4.096,4.067c0.009,2.238-1.829,4.079-4.084,4.084
                c-2.309,0.005-4.09-1.779-4.088-4.102C20.32,51.179,22.097,49.41,24.396,49.407z"/>
        </g>
    </g>
</defs>

<defs>
    <g id="facebook_icon">
        <path d="M72.089,0.02L59.624,0C45.62,0,36.57,9.285,36.57,23.656v10.907H24.037c-1.083,0-1.96,0.878-1.96,1.961v15.803
            c0,1.083,0.878,1.96,1.96,1.96h12.533v39.876c0,1.083,0.877,1.96,1.96,1.96h16.352c1.083,0,1.96-0.878,1.96-1.96V54.287h14.654
            c1.083,0,1.96-0.877,1.96-1.96l0.006-15.803c0-0.52-0.207-1.018-0.574-1.386c-0.367-0.368-0.867-0.575-1.387-0.575H56.842v-9.246
            c0-4.444,1.059-6.7,6.848-6.7l8.397-0.003c1.082,0,1.959-0.878,1.959-1.96V1.98C74.046,0.899,73.17,0.022,72.089,0.02z"/>
    </g>
</defs>
</svg>
