<?xml version="1.0" encoding="UTF-8"?>
<svg width="32" height="32" enable-background="new 0 0 98.566 98.566" version="1.1" viewBox="0 0 31.999999 31.999999" xml:space="preserve" xmlns="http://www.w3.org/2000/svg" xmlns:cc="http://creativecommons.org/ns#" xmlns:dc="http://purl.org/dc/elements/1.1/" xmlns:rdf="http://www.w3.org/1999/02/22-rdf-syntax-ns#"><metadata><rdf:RDF><cc:Work rdf:about=""><dc:format>image/svg+xml</dc:format><dc:type rdf:resource="http://purl.org/dc/dcmitype/StillImage"/><dc:title/></cc:Work></rdf:RDF></metadata>
<g transform="matrix(.3243 0 0 .3243 -.0008876 -.2673)">
		<path d="m60.401 20.996c2.751 0.389 5.445 1.08 8.105 1.898 4.647 1.431 9.032 3.419 13.156 5.998 0.287 0.178 0.67 0.291 1.008 0.291 4.846 0.02 9.688 0.013 14.526 0.017 0.39 0 0.778 0.041 1.167 0.063 0 0.095 0.014 0.135-2e-3 0.155-0.226 0.35-0.455 0.691-0.682 1.038-1.645 2.521-3.049 5.156-3.876 8.07-0.092 0.313-0.109 0.575 0.103 0.882 4.313 6.192 5.688 12.99 3.886 20.318-1.58 6.427-5.264 11.438-10.86 14.984-4.001 2.537-8.421 3.745-13.145 3.771-1.982 0.012-3.958-0.255-5.896-0.757-4.724-1.227-8.771-3.579-12.106-7.146-0.438-0.468-0.854-0.957-1.323-1.484-1.764 2.629-3.5 5.215-5.276 7.867-1.771-2.646-3.483-5.207-5.191-7.758-0.118 0.063-0.152 0.069-0.175 0.091-0.039 0.032-0.072 0.071-0.104 0.108-4.033 4.765-9.109 7.686-15.295 8.663-3.438 0.545-6.847 0.349-10.188-0.572-4.735-1.301-8.759-3.799-12.01-7.483-3.179-3.604-5.153-7.788-5.896-12.547-0.849-4.438 0.187-8.721 0.443-9.76 0.748-3.02 2.052-5.793 3.842-8.343 0.126-0.181 0.17-0.501 0.11-0.717-0.73-2.678-1.988-5.112-3.461-7.444-0.374-0.593-0.822-1.142-1.236-1.711v-0.198c0.083 0.012 0.165 0.026 0.246 0.026 4.956 2e-3 9.911 4e-3 14.867-6e-3 0.216 0 0.456-0.089 0.64-0.207 3.481-2.234 7.192-4.004 11.09-5.382 2.813-0.992 5.681-1.768 8.608-2.333 2.834-0.549 5.683-0.936 8.562-1.124 7.021-0.534 12.631 0.209 16.363 0.732zm-6.213 32.731c0 10.883 8.83 19.772 19.674 19.73 10.885-0.039 19.675-8.68 19.667-19.683-8e-3 -11.339-9.206-19.863-20.089-19.644-10.744 0.227-19.154 8.887-19.252 19.597zm-29.511-19.668c-10.586-0.092-19.816 8.743-19.631 19.997 0.172 10.493 8.822 19.392 19.853 19.297 10.783-0.093 19.451-8.898 19.471-19.563 0.016-10.955-8.758-19.731-19.693-19.731zm0.976-5.134c5.979 0.365 11.233 2.449 15.671 6.485 4.429 4.028 7.024 9.053 7.967 14.962 0.972-5.839 3.497-10.815 7.843-14.805 4.354-3.992 9.536-6.087 15.418-6.53-6.979-3.103-14.34-4.421-21.916-4.565-8.61-0.171-16.985 1.098-24.983 4.453z"/>
		<path d="m73.822 41.311c6.735-0.013 12.19 5.415 12.19 12.143 0 6.754-5.362 11.977-11.688 12.216-7.065 0.271-12.718-5.356-12.716-12.186 6e-3 -6.906 5.699-12.287 12.214-12.173zm7.944 12.173c-3e-3 -4.392-3.554-7.958-7.912-7.958-4.41 0-8 3.549-8.02 7.926-0.016 4.358 3.594 7.984 7.961 7.996 4.378 0.017 7.973-3.582 7.971-7.964z"/>
		<path d="m24.417 41.311c6.731-7e-3 12.194 5.429 12.177 12.154-0.019 6.811-5.386 11.916-11.601 12.199-7.093 0.326-12.816-5.328-12.803-12.193 0.014-6.955 5.746-12.276 12.227-12.16zm7.935 12.146c-0.015-4.417-3.585-7.938-8.044-7.93-4.303 8e-3 -7.905 3.638-7.896 7.955 0.011 4.367 3.611 7.958 7.992 7.97 4.355 0.01 7.959-3.616 7.948-7.995z"/>
		<path d="m73.828 49.443c2.232-2e-3 4.063 1.829 4.041 4.048-0.021 2.224-1.821 4.026-4.016 4.027-2.262 0-4.077-1.786-4.072-3.999 4e-3 -2.296 1.769-4.074 4.047-4.076z"/>
		<path d="m24.396 49.407c2.266-2e-3 4.087 1.808 4.096 4.067 9e-3 2.238-1.829 4.079-4.084 4.084-2.309 5e-3 -4.09-1.779-4.088-4.102 0-2.277 1.777-4.046 4.076-4.049z"/>
</g>
</svg>
