<svg xmlns="http://www.w3.org/2000/svg" viewBox="0 0 1440 320" class="section-wave hero-wave"><path fill="#fb5600" fill-opacity="0.6" d="M0,64L30,74.7C60,85,120,107,180,138.7C240,171,300,213,360,213.3C420,213,480,171,540,144C600,117,660,107,720,101.3C780,96,840,96,900,117.3C960,139,1020,181,1080,181.3C1140,181,1200,139,1260,133.3C1320,128,1380,160,1410,176L1440,192L1440,320L1410,320C1380,320,1320,320,1260,320C1200,320,1140,320,1080,320C1020,320,960,320,900,320C840,320,780,320,720,320C660,320,600,320,540,320C480,320,420,320,360,320C300,320,240,320,180,320C120,320,60,320,30,320L0,320Z"></path></svg>