<svg xmlns="http://www.w3.org/2000/svg" viewBox="0 0 1440 320" class="section-wave hero-wave"><path fill="#000" fill-opacity="0.2" d="M0,96L30,133.3C60,171,120,245,180,256C240,267,300,213,360,160C420,107,480,53,540,69.3C600,85,660,171,720,176C780,181,840,107,900,64C960,21,1020,11,1080,48C1140,85,1200,171,1260,181.3C1320,192,1380,128,1410,96L1440,64L1440,320L1410,320C1380,320,1320,320,1260,320C1200,320,1140,320,1080,320C1020,320,960,320,900,320C840,320,780,320,720,320C660,320,600,320,540,320C480,320,420,320,360,320C300,320,240,320,180,320C120,320,60,320,30,320L0,320Z"></path></svg>